<svg xmlns="http://www.w3.org/2000/svg" xmlns:xlink="http://www.w3.org/1999/xlink" width="500" zoomAndPan="magnify" viewBox="0 0 375 374.999991" height="500" preserveAspectRatio="xMidYMid meet" version="1.0"><defs><g/><clipPath id="id1"><path d="M 22 85 L 101 85 L 101 168.421875 L 22 168.421875 Z M 22 85 " clip-rule="nonzero"/></clipPath><clipPath id="id2"><path d="M 98 72.421875 L 238 72.421875 L 238 158 L 98 158 Z M 98 72.421875 " clip-rule="nonzero"/></clipPath></defs><g clip-path="url(#id1)"><path fill="#61a6ab" d="M 22.824219 166.320312 L 88.902344 85.035156 L 100.851562 96.949219 L 50.941406 157.210938 L 52.347656 168.421875 Z M 22.824219 166.320312 " fill-opacity="1" fill-rule="evenodd"/></g><path fill="#61a6ab" d="M 352.496094 165.621094 L 308.914062 111.664062 L 300.480469 119.371094 L 334.21875 159.3125 L 332.8125 167.023438 Z M 352.496094 165.621094 " fill-opacity="1" fill-rule="evenodd"/><path fill="#ffce6d" d="M 301.886719 103.253906 L 251.273438 164.917969 L 172.546875 164.21875 L 215.425781 120.074219 Z M 301.886719 103.253906 " fill-opacity="1" fill-rule="evenodd"/><g clip-path="url(#id2)"><path fill="#ed5b2d" d="M 186.605469 101.855469 L 175.359375 96.949219 L 175.359375 87.839844 L 98.742188 73.125 L 168.332031 157.910156 L 211.207031 113.066406 L 237.917969 108.160156 L 228.078125 98.351562 L 197.148438 92.042969 L 197.148438 72.421875 L 186.605469 72.421875 Z M 186.605469 101.855469 " fill-opacity="1" fill-rule="evenodd"/></g><path fill="#61a6ab" d="M 106.472656 152.304688 L 106.472656 136.191406 L 91.710938 136.191406 L 91.710938 152.304688 Z M 91.710938 133.386719 L 106.472656 133.386719 L 106.472656 117.96875 C 98.742188 118.671875 92.414062 124.976562 91.710938 133.386719 Z M 109.988281 133.386719 L 124.75 133.386719 C 124.046875 125.679688 117.71875 118.671875 109.988281 117.96875 Z M 124.75 136.191406 L 109.988281 136.191406 L 109.988281 152.304688 L 124.75 152.304688 Z M 124.75 136.191406 " fill-opacity="1" fill-rule="evenodd"/><path fill="#61a6ab" d="M 294.152344 155.109375 L 294.152344 145.300781 L 285.015625 145.300781 L 285.015625 155.109375 Z M 285.015625 143.898438 L 294.152344 143.898438 L 294.152344 134.789062 C 289.234375 135.488281 285.71875 138.992188 285.015625 143.898438 Z M 295.558594 143.898438 L 304.695312 143.898438 C 303.992188 138.992188 300.480469 135.488281 295.558594 134.789062 Z M 304.695312 145.300781 L 295.558594 145.300781 L 295.558594 155.109375 L 304.695312 155.109375 Z M 304.695312 145.300781 " fill-opacity="1" fill-rule="evenodd"/><g fill="#ed5b2d" fill-opacity="1"><g transform="translate(70.565968, 229.145247)"><g><path d="M 41.9375 0 C 41.164062 0 40.644531 -0.382812 40.375 -1.15625 L 38.078125 -8.78125 C 38.023438 -9.050781 37.859375 -9.1875 37.578125 -9.1875 L 17.484375 -9.1875 C 17.203125 -9.1875 17.035156 -9.050781 16.984375 -8.78125 L 14.6875 -1.15625 C 14.414062 -0.382812 13.894531 0 13.125 0 L 3.609375 0 C 3.117188 0 2.765625 -0.148438 2.546875 -0.453125 C 2.328125 -0.753906 2.300781 -1.125 2.46875 -1.5625 L 19.9375 -56.296875 C 20.207031 -57.054688 20.726562 -57.4375 21.5 -57.4375 L 33.5625 -57.4375 C 34.332031 -57.4375 34.851562 -57.054688 35.125 -56.296875 L 52.609375 -1.5625 C 52.660156 -1.445312 52.6875 -1.28125 52.6875 -1.0625 C 52.6875 -0.738281 52.578125 -0.476562 52.359375 -0.28125 C 52.140625 -0.09375 51.835938 0 51.453125 0 Z M 19.859375 -18.703125 C 19.804688 -18.328125 19.941406 -18.140625 20.265625 -18.140625 L 34.796875 -18.140625 C 35.117188 -18.140625 35.253906 -18.328125 35.203125 -18.703125 L 27.8125 -43.734375 C 27.757812 -43.953125 27.664062 -44.0625 27.53125 -44.0625 C 27.394531 -44.0625 27.269531 -43.953125 27.15625 -43.734375 Z M 19.859375 -18.703125 "/></g></g></g><g fill="#ed5b2d" fill-opacity="1"><g transform="translate(125.626148, 229.145247)"><g><path d="M 26.265625 -42.84375 C 30.640625 -42.84375 34.164062 -41.5 36.84375 -38.8125 C 39.519531 -36.132812 40.859375 -32.5 40.859375 -27.90625 L 40.859375 -1.390625 C 40.859375 -0.460938 40.394531 0 39.46875 0 L 30.6875 0 C 29.757812 0 29.296875 -0.460938 29.296875 -1.390625 L 29.296875 -25.515625 C 29.296875 -27.703125 28.691406 -29.476562 27.484375 -30.84375 C 26.285156 -32.21875 24.675781 -32.90625 22.65625 -32.90625 C 20.625 -32.90625 18.976562 -32.21875 17.71875 -30.84375 C 16.46875 -29.476562 15.84375 -27.703125 15.84375 -25.515625 L 15.84375 -1.390625 C 15.84375 -0.460938 15.375 0 14.4375 0 L 5.65625 0 C 4.726562 0 4.265625 -0.460938 4.265625 -1.390625 L 4.265625 -40.78125 C 4.265625 -41.71875 4.726562 -42.1875 5.65625 -42.1875 L 14.4375 -42.1875 C 15.375 -42.1875 15.84375 -41.71875 15.84375 -40.78125 L 15.84375 -38.484375 C 15.84375 -38.265625 15.894531 -38.128906 16 -38.078125 C 16.113281 -38.023438 16.222656 -38.078125 16.328125 -38.234375 C 18.566406 -41.304688 21.878906 -42.84375 26.265625 -42.84375 Z M 26.265625 -42.84375 "/></g></g></g><g fill="#ed5b2d" fill-opacity="1"><g transform="translate(170.51127, 229.145247)"><g><path d="M 21.171875 -42.84375 C 24.722656 -42.84375 27.894531 -42.222656 30.6875 -40.984375 C 33.476562 -39.753906 35.648438 -38.070312 37.203125 -35.9375 C 38.765625 -33.8125 39.546875 -31.429688 39.546875 -28.796875 L 39.546875 -1.390625 C 39.546875 -0.460938 39.082031 0 38.15625 0 L 29.375 0 C 28.445312 0 27.984375 -0.460938 27.984375 -1.390625 L 27.984375 -3.359375 C 27.984375 -3.578125 27.925781 -3.703125 27.8125 -3.734375 C 27.707031 -3.765625 27.570312 -3.695312 27.40625 -3.53125 C 24.894531 -0.738281 21.148438 0.65625 16.171875 0.65625 C 11.953125 0.65625 8.554688 -0.378906 5.984375 -2.453125 C 3.421875 -4.535156 2.140625 -7.601562 2.140625 -11.65625 C 2.140625 -15.863281 3.613281 -19.128906 6.5625 -21.453125 C 9.519531 -23.785156 13.734375 -24.953125 19.203125 -24.953125 L 27.484375 -24.953125 C 27.816406 -24.953125 27.984375 -25.113281 27.984375 -25.4375 L 27.984375 -27.15625 C 27.984375 -28.96875 27.421875 -30.378906 26.296875 -31.390625 C 25.179688 -32.398438 23.554688 -32.90625 21.421875 -32.90625 C 19.773438 -32.90625 18.414062 -32.628906 17.34375 -32.078125 C 16.28125 -31.535156 15.5625 -30.769531 15.1875 -29.78125 C 14.851562 -29.019531 14.304688 -28.664062 13.546875 -28.71875 L 4.4375 -29.875 C 4 -29.925781 3.65625 -30.046875 3.40625 -30.234375 C 3.15625 -30.429688 3.0625 -30.691406 3.125 -31.015625 C 3.394531 -33.265625 4.335938 -35.289062 5.953125 -37.09375 C 7.566406 -38.894531 9.695312 -40.300781 12.34375 -41.3125 C 15 -42.332031 17.941406 -42.84375 21.171875 -42.84375 Z M 19.53125 -7.953125 C 21.882812 -7.953125 23.878906 -8.582031 25.515625 -9.84375 C 27.160156 -11.101562 27.984375 -12.71875 27.984375 -14.6875 L 27.984375 -17.5625 C 27.984375 -17.882812 27.816406 -18.046875 27.484375 -18.046875 L 21.671875 -18.046875 C 19.203125 -18.046875 17.253906 -17.582031 15.828125 -16.65625 C 14.410156 -15.726562 13.703125 -14.414062 13.703125 -12.71875 C 13.703125 -11.238281 14.234375 -10.070312 15.296875 -9.21875 C 16.367188 -8.375 17.78125 -7.953125 19.53125 -7.953125 Z M 19.53125 -7.953125 "/></g></g></g><g fill="#ed5b2d" fill-opacity="1"><g transform="translate(213.837325, 229.145247)"><g><path d="M 26.265625 -42.84375 C 30.640625 -42.84375 34.164062 -41.5 36.84375 -38.8125 C 39.519531 -36.132812 40.859375 -32.5 40.859375 -27.90625 L 40.859375 -1.390625 C 40.859375 -0.460938 40.394531 0 39.46875 0 L 30.6875 0 C 29.757812 0 29.296875 -0.460938 29.296875 -1.390625 L 29.296875 -25.515625 C 29.296875 -27.703125 28.691406 -29.476562 27.484375 -30.84375 C 26.285156 -32.21875 24.675781 -32.90625 22.65625 -32.90625 C 20.625 -32.90625 18.976562 -32.21875 17.71875 -30.84375 C 16.46875 -29.476562 15.84375 -27.703125 15.84375 -25.515625 L 15.84375 -1.390625 C 15.84375 -0.460938 15.375 0 14.4375 0 L 5.65625 0 C 4.726562 0 4.265625 -0.460938 4.265625 -1.390625 L 4.265625 -40.78125 C 4.265625 -41.71875 4.726562 -42.1875 5.65625 -42.1875 L 14.4375 -42.1875 C 15.375 -42.1875 15.84375 -41.71875 15.84375 -40.78125 L 15.84375 -38.484375 C 15.84375 -38.265625 15.894531 -38.128906 16 -38.078125 C 16.113281 -38.023438 16.222656 -38.078125 16.328125 -38.234375 C 18.566406 -41.304688 21.878906 -42.84375 26.265625 -42.84375 Z M 26.265625 -42.84375 "/></g></g></g><g fill="#ed5b2d" fill-opacity="1"><g transform="translate(258.722447, 229.145247)"><g><path d="M 29.703125 -56.046875 C 29.703125 -56.972656 30.171875 -57.4375 31.109375 -57.4375 L 39.875 -57.4375 C 40.8125 -57.4375 41.28125 -56.972656 41.28125 -56.046875 L 41.28125 -1.390625 C 41.28125 -0.460938 40.8125 0 39.875 0 L 31.109375 0 C 30.171875 0 29.703125 -0.460938 29.703125 -1.390625 L 29.703125 -3.609375 C 29.703125 -3.828125 29.632812 -3.945312 29.5 -3.96875 C 29.363281 -4 29.238281 -3.9375 29.125 -3.78125 C 26.882812 -0.820312 23.769531 0.65625 19.78125 0.65625 C 16.0625 0.65625 12.765625 -0.445312 9.890625 -2.65625 C 7.015625 -4.875 5.03125 -7.789062 3.9375 -11.40625 C 3.007812 -14.03125 2.546875 -17.3125 2.546875 -21.25 C 2.546875 -25.300781 3.066406 -28.695312 4.109375 -31.4375 C 5.304688 -34.9375 7.285156 -37.722656 10.046875 -39.796875 C 12.816406 -41.878906 16.0625 -42.921875 19.78125 -42.921875 C 23.820312 -42.921875 26.9375 -41.578125 29.125 -38.890625 C 29.238281 -38.734375 29.363281 -38.679688 29.5 -38.734375 C 29.632812 -38.785156 29.703125 -38.921875 29.703125 -39.140625 Z M 27.984375 -12.96875 C 29.078125 -14.988281 29.625 -17.695312 29.625 -21.09375 C 29.625 -24.695312 29.050781 -27.515625 27.90625 -29.546875 C 26.53125 -31.679688 24.695312 -32.75 22.40625 -32.75 C 19.882812 -32.75 17.96875 -31.707031 16.65625 -29.625 C 15.34375 -27.4375 14.6875 -24.566406 14.6875 -21.015625 C 14.6875 -17.785156 15.257812 -15.101562 16.40625 -12.96875 C 17.71875 -10.613281 19.71875 -9.4375 22.40625 -9.4375 C 24.8125 -9.4375 26.671875 -10.613281 27.984375 -12.96875 Z M 27.984375 -12.96875 "/></g></g></g><g fill="#61a6ab" fill-opacity="1"><g transform="translate(96.828999, 292.531346)"><g><path d="M 21.84375 -32.90625 C 21.84375 -33.414062 22.097656 -33.671875 22.609375 -33.671875 L 26.65625 -33.671875 C 27.164062 -33.671875 27.421875 -33.414062 27.421875 -32.90625 L 27.421875 -0.765625 C 27.421875 -0.253906 27.164062 0 26.65625 0 L 22.609375 0 C 22.097656 0 21.84375 -0.253906 21.84375 -0.765625 L 21.84375 -14.28125 C 21.84375 -14.476562 21.742188 -14.578125 21.546875 -14.578125 L 9.375 -14.578125 C 9.1875 -14.578125 9.09375 -14.476562 9.09375 -14.28125 L 9.09375 -0.765625 C 9.09375 -0.253906 8.835938 0 8.328125 0 L 4.28125 0 C 3.769531 0 3.515625 -0.253906 3.515625 -0.765625 L 3.515625 -32.90625 C 3.515625 -33.414062 3.769531 -33.671875 4.28125 -33.671875 L 8.328125 -33.671875 C 8.835938 -33.671875 9.09375 -33.414062 9.09375 -32.90625 L 9.09375 -19.671875 C 9.09375 -19.484375 9.1875 -19.390625 9.375 -19.390625 L 21.546875 -19.390625 C 21.742188 -19.390625 21.84375 -19.484375 21.84375 -19.671875 Z M 21.84375 -32.90625 "/></g></g></g><g fill="#61a6ab" fill-opacity="1"><g transform="translate(132.327351, 292.531346)"><g><path d="M 13.46875 0.390625 C 10.9375 0.390625 8.753906 -0.25 6.921875 -1.53125 C 5.097656 -2.820312 3.832031 -4.601562 3.125 -6.875 C 2.582031 -8.445312 2.3125 -10.273438 2.3125 -12.359375 C 2.3125 -14.410156 2.566406 -16.238281 3.078125 -17.84375 C 3.816406 -20.09375 5.097656 -21.84375 6.921875 -23.09375 C 8.753906 -24.34375 10.953125 -24.96875 13.515625 -24.96875 C 15.953125 -24.96875 18.0625 -24.34375 19.84375 -23.09375 C 21.625 -21.84375 22.882812 -20.109375 23.625 -17.890625 C 24.195312 -16.359375 24.484375 -14.53125 24.484375 -12.40625 C 24.484375 -10.382812 24.210938 -8.554688 23.671875 -6.921875 C 22.929688 -4.648438 21.660156 -2.863281 19.859375 -1.5625 C 18.066406 -0.257812 15.9375 0.390625 13.46875 0.390625 Z M 13.46875 -4.421875 C 14.65625 -4.421875 15.671875 -4.757812 16.515625 -5.4375 C 17.367188 -6.113281 17.972656 -7.0625 18.328125 -8.28125 C 18.679688 -9.300781 18.859375 -10.644531 18.859375 -12.3125 C 18.859375 -13.882812 18.695312 -15.234375 18.375 -16.359375 C 18.019531 -17.578125 17.398438 -18.515625 16.515625 -19.171875 C 15.640625 -19.828125 14.59375 -20.15625 13.375 -20.15625 C 12.15625 -20.15625 11.113281 -19.828125 10.25 -19.171875 C 9.382812 -18.515625 8.773438 -17.578125 8.421875 -16.359375 C 8.097656 -15.234375 7.9375 -13.882812 7.9375 -12.3125 C 7.9375 -10.738281 8.097656 -9.394531 8.421875 -8.28125 C 8.773438 -7.0625 9.390625 -6.113281 10.265625 -5.4375 C 11.148438 -4.757812 12.21875 -4.421875 13.46875 -4.421875 Z M 13.46875 -4.421875 "/></g></g></g><g fill="#61a6ab" fill-opacity="1"><g transform="translate(163.977704, 292.531346)"><g><path d="M 17.515625 -23.8125 C 17.515625 -24.320312 17.769531 -24.578125 18.28125 -24.578125 L 22.28125 -24.578125 C 22.789062 -24.578125 23.046875 -24.320312 23.046875 -23.8125 L 23.046875 -0.765625 C 23.046875 -0.253906 22.789062 0 22.28125 0 L 18.28125 0 C 17.769531 0 17.515625 -0.253906 17.515625 -0.765625 L 17.515625 -2.015625 C 17.515625 -2.148438 17.472656 -2.234375 17.390625 -2.265625 C 17.304688 -2.296875 17.234375 -2.242188 17.171875 -2.109375 C 15.890625 -0.472656 13.9375 0.34375 11.3125 0.34375 C 8.875 0.34375 6.828125 -0.359375 5.171875 -1.765625 C 3.515625 -3.179688 2.6875 -5.191406 2.6875 -7.796875 L 2.6875 -23.8125 C 2.6875 -24.320312 2.945312 -24.578125 3.46875 -24.578125 L 7.5 -24.578125 C 8.019531 -24.578125 8.28125 -24.320312 8.28125 -23.8125 L 8.28125 -9.375 C 8.28125 -7.875 8.671875 -6.671875 9.453125 -5.765625 C 10.234375 -4.867188 11.332031 -4.421875 12.75 -4.421875 C 14.1875 -4.421875 15.335938 -4.867188 16.203125 -5.765625 C 17.078125 -6.671875 17.515625 -7.875 17.515625 -9.375 Z M 17.515625 -23.8125 "/></g></g></g><g fill="#61a6ab" fill-opacity="1"><g transform="translate(194.858462, 292.531346)"><g><path d="M 12.171875 0.28125 C 10.148438 0.28125 8.378906 -0.0078125 6.859375 -0.59375 C 5.335938 -1.1875 4.15625 -2.003906 3.3125 -3.046875 C 2.476562 -4.097656 2.0625 -5.265625 2.0625 -6.546875 L 2.0625 -6.78125 C 2.0625 -7.289062 2.320312 -7.546875 2.84375 -7.546875 L 6.6875 -7.546875 C 7.195312 -7.546875 7.453125 -7.4375 7.453125 -7.21875 L 7.453125 -6.875 C 7.453125 -6.070312 7.894531 -5.375 8.78125 -4.78125 C 9.664062 -4.1875 10.78125 -3.890625 12.125 -3.890625 C 13.40625 -3.890625 14.445312 -4.15625 15.25 -4.6875 C 16.050781 -5.21875 16.453125 -5.882812 16.453125 -6.6875 C 16.453125 -7.425781 16.125 -7.976562 15.46875 -8.34375 C 14.8125 -8.71875 13.742188 -9.113281 12.265625 -9.53125 L 10.4375 -10.109375 C 8.800781 -10.585938 7.421875 -11.097656 6.296875 -11.640625 C 5.179688 -12.179688 4.238281 -12.925781 3.46875 -13.875 C 2.695312 -14.820312 2.3125 -16.035156 2.3125 -17.515625 C 2.3125 -19.753906 3.179688 -21.539062 4.921875 -22.875 C 6.671875 -24.207031 8.992188 -24.875 11.890625 -24.875 C 13.835938 -24.875 15.550781 -24.5625 17.03125 -23.9375 C 18.507812 -23.3125 19.65625 -22.441406 20.46875 -21.328125 C 21.289062 -20.222656 21.703125 -18.96875 21.703125 -17.5625 C 21.703125 -17.394531 21.628906 -17.253906 21.484375 -17.140625 C 21.335938 -17.035156 21.148438 -16.984375 20.921875 -16.984375 L 17.21875 -16.984375 C 16.707031 -16.984375 16.453125 -17.078125 16.453125 -17.265625 L 16.453125 -17.5625 C 16.453125 -18.394531 16.039062 -19.09375 15.21875 -19.65625 C 14.40625 -20.21875 13.296875 -20.5 11.890625 -20.5 C 10.628906 -20.5 9.609375 -20.265625 8.828125 -19.796875 C 8.046875 -19.328125 7.65625 -18.675781 7.65625 -17.84375 C 7.65625 -17.070312 8.019531 -16.484375 8.75 -16.078125 C 9.488281 -15.679688 10.722656 -15.242188 12.453125 -14.765625 L 13.5625 -14.484375 C 15.300781 -13.972656 16.742188 -13.457031 17.890625 -12.9375 C 19.046875 -12.425781 20.023438 -11.6875 20.828125 -10.71875 C 21.628906 -9.757812 22.03125 -8.53125 22.03125 -7.03125 C 22.03125 -4.75 21.128906 -2.957031 19.328125 -1.65625 C 17.535156 -0.363281 15.148438 0.28125 12.171875 0.28125 Z M 12.171875 0.28125 "/></g></g></g><g fill="#61a6ab" fill-opacity="1"><g transform="translate(223.478516, 292.531346)"><g><path d="M 14 -4.328125 C 15.1875 -4.359375 16.21875 -4.601562 17.09375 -5.0625 C 17.976562 -5.53125 18.695312 -6.164062 19.25 -6.96875 C 19.40625 -7.226562 19.613281 -7.359375 19.875 -7.359375 C 20.03125 -7.359375 20.171875 -7.3125 20.296875 -7.21875 L 22.609375 -5.390625 C 22.835938 -5.160156 22.953125 -4.953125 22.953125 -4.765625 C 22.953125 -4.640625 22.898438 -4.492188 22.796875 -4.328125 C 21.867188 -2.847656 20.601562 -1.691406 19 -0.859375 C 17.394531 -0.0234375 15.550781 0.390625 13.46875 0.390625 C 10.9375 0.390625 8.8125 -0.207031 7.09375 -1.40625 C 5.375 -2.613281 4.132812 -4.296875 3.375 -6.453125 C 2.726562 -8.210938 2.40625 -10.195312 2.40625 -12.40625 C 2.40625 -14.625 2.582031 -16.328125 2.9375 -17.515625 C 3.539062 -19.785156 4.738281 -21.59375 6.53125 -22.9375 C 8.332031 -24.289062 10.515625 -24.96875 13.078125 -24.96875 C 19.078125 -24.96875 22.59375 -21.679688 23.625 -15.109375 C 23.78125 -14.046875 23.890625 -12.726562 23.953125 -11.15625 C 23.953125 -10.644531 23.695312 -10.390625 23.1875 -10.390625 L 8.28125 -10.390625 C 8.082031 -10.390625 7.984375 -10.296875 7.984375 -10.109375 C 7.984375 -9.234375 8.082031 -8.523438 8.28125 -7.984375 C 8.625 -6.828125 9.289062 -5.925781 10.28125 -5.28125 C 11.28125 -4.644531 12.519531 -4.328125 14 -4.328125 Z M 13.03125 -20.15625 C 11.8125 -20.15625 10.8125 -19.859375 10.03125 -19.265625 C 9.25 -18.671875 8.710938 -17.847656 8.421875 -16.796875 C 8.191406 -16.148438 8.0625 -15.472656 8.03125 -14.765625 C 8 -14.578125 8.082031 -14.484375 8.28125 -14.484375 L 17.9375 -14.484375 C 18.132812 -14.484375 18.234375 -14.578125 18.234375 -14.765625 C 18.109375 -15.734375 18.007812 -16.3125 17.9375 -16.5 C 17.65625 -17.625 17.085938 -18.515625 16.234375 -19.171875 C 15.390625 -19.828125 14.320312 -20.15625 13.03125 -20.15625 Z M 13.03125 -20.15625 "/></g></g></g><g fill="#61a6ab" fill-opacity="1"><g transform="translate(254.407371, 292.531346)"><g><path d="M 12.171875 0.28125 C 10.148438 0.28125 8.378906 -0.0078125 6.859375 -0.59375 C 5.335938 -1.1875 4.15625 -2.003906 3.3125 -3.046875 C 2.476562 -4.097656 2.0625 -5.265625 2.0625 -6.546875 L 2.0625 -6.78125 C 2.0625 -7.289062 2.320312 -7.546875 2.84375 -7.546875 L 6.6875 -7.546875 C 7.195312 -7.546875 7.453125 -7.4375 7.453125 -7.21875 L 7.453125 -6.875 C 7.453125 -6.070312 7.894531 -5.375 8.78125 -4.78125 C 9.664062 -4.1875 10.78125 -3.890625 12.125 -3.890625 C 13.40625 -3.890625 14.445312 -4.15625 15.25 -4.6875 C 16.050781 -5.21875 16.453125 -5.882812 16.453125 -6.6875 C 16.453125 -7.425781 16.125 -7.976562 15.46875 -8.34375 C 14.8125 -8.71875 13.742188 -9.113281 12.265625 -9.53125 L 10.4375 -10.109375 C 8.800781 -10.585938 7.421875 -11.097656 6.296875 -11.640625 C 5.179688 -12.179688 4.238281 -12.925781 3.46875 -13.875 C 2.695312 -14.820312 2.3125 -16.035156 2.3125 -17.515625 C 2.3125 -19.753906 3.179688 -21.539062 4.921875 -22.875 C 6.671875 -24.207031 8.992188 -24.875 11.890625 -24.875 C 13.835938 -24.875 15.550781 -24.5625 17.03125 -23.9375 C 18.507812 -23.3125 19.65625 -22.441406 20.46875 -21.328125 C 21.289062 -20.222656 21.703125 -18.96875 21.703125 -17.5625 C 21.703125 -17.394531 21.628906 -17.253906 21.484375 -17.140625 C 21.335938 -17.035156 21.148438 -16.984375 20.921875 -16.984375 L 17.21875 -16.984375 C 16.707031 -16.984375 16.453125 -17.078125 16.453125 -17.265625 L 16.453125 -17.5625 C 16.453125 -18.394531 16.039062 -19.09375 15.21875 -19.65625 C 14.40625 -20.21875 13.296875 -20.5 11.890625 -20.5 C 10.628906 -20.5 9.609375 -20.265625 8.828125 -19.796875 C 8.046875 -19.328125 7.65625 -18.675781 7.65625 -17.84375 C 7.65625 -17.070312 8.019531 -16.484375 8.75 -16.078125 C 9.488281 -15.679688 10.722656 -15.242188 12.453125 -14.765625 L 13.5625 -14.484375 C 15.300781 -13.972656 16.742188 -13.457031 17.890625 -12.9375 C 19.046875 -12.425781 20.023438 -11.6875 20.828125 -10.71875 C 21.628906 -9.757812 22.03125 -8.53125 22.03125 -7.03125 C 22.03125 -4.75 21.128906 -2.957031 19.328125 -1.65625 C 17.535156 -0.363281 15.148438 0.28125 12.171875 0.28125 Z M 12.171875 0.28125 "/></g></g></g></svg>