<?xml version="1.0" standalone="no"?>
<!DOCTYPE svg PUBLIC "-//W3C//DTD SVG 20010904//EN"
 "http://www.w3.org/TR/2001/REC-SVG-20010904/DTD/svg10.dtd">
<svg version="1.0" xmlns="http://www.w3.org/2000/svg"
 width="1500.000000pt" height="1500.000000pt" viewBox="0 0 1500.000000 1500.000000"
 preserveAspectRatio="xMidYMid meet">
<metadata>
Created by potrace 1.14, written by Peter Selinger 2001-2017
</metadata>
<g transform="translate(0.000000,1500.000000) scale(0.100000,-0.100000)"
fill="#000000" stroke="none">
<path d="M7465 11519 c0 -319 -3 -583 -6 -585 -7 -4 -415 172 -434 187 -7 5
-10 74 -10 184 0 97 -2 178 -6 181 -6 3 -277 57 -424 84 -27 5 -59 11 -70 14
-19 4 -173 33 -225 42 -37 7 -224 43 -305 59 -38 8 -83 16 -100 19 -16 3 -41
8 -55 11 -22 4 -39 8 -110 20 -8 2 -121 24 -250 49 -129 24 -273 52 -320 61
-127 24 -126 24 -260 50 -69 14 -138 27 -155 30 -16 2 -41 7 -55 10 -14 3 -47
9 -75 14 -214 41 -324 62 -345 66 -14 2 -50 9 -80 15 -30 6 -65 13 -77 16 -13
2 -35 6 -50 9 -91 18 -96 18 -88 4 5 -8 68 -86 139 -173 72 -88 198 -241 279
-340 82 -100 156 -190 165 -201 22 -25 227 -275 550 -670 139 -170 261 -319
270 -330 9 -11 48 -58 87 -105 38 -47 77 -94 86 -105 9 -11 61 -74 115 -140
55 -66 106 -129 116 -140 9 -11 101 -123 204 -250 104 -126 191 -232 194 -235
3 -3 32 -39 65 -80 33 -41 69 -86 81 -100 12 -14 109 -131 214 -260 106 -129
196 -236 200 -238 7 -3 101 91 245 243 26 28 122 128 214 224 91 96 186 195
211 221 25 26 122 127 215 225 94 98 181 190 195 205 38 40 401 420 520 543
57 59 107 112 110 116 3 5 25 12 50 16 25 4 54 9 65 11 28 6 48 9 235 43 91
17 179 33 195 36 26 5 159 29 220 40 11 1 72 13 135 25 63 12 126 24 140 27
13 2 26 6 28 7 1 2 -85 91 -193 198 l-195 195 -132 26 c-73 15 -163 33 -199
41 -36 8 -82 17 -102 20 -20 3 -56 10 -79 15 -24 6 -54 12 -68 15 -14 2 -57
11 -95 20 -39 8 -82 17 -95 20 -237 44 -447 91 -455 101 -6 7 -10 153 -10 393
l1 382 -211 0 -210 0 0 -581z"/>
<path d="M3525 11562 c-16 -22 -379 -470 -500 -617 -44 -54 -149 -183 -280
-345 -61 -74 -117 -144 -126 -155 -20 -24 -238 -292 -614 -755 -148 -183 -274
-338 -280 -344 -5 -6 -37 -45 -70 -86 -33 -41 -68 -84 -77 -95 -14 -16 -158
-193 -335 -411 -241 -296 -321 -399 -317 -403 3 -3 15 -6 27 -7 12 -1 72 -5
132 -9 61 -4 126 -8 145 -10 19 -2 78 -6 130 -10 52 -3 118 -8 145 -10 28 -2
91 -6 140 -9 50 -4 108 -8 130 -11 22 -2 90 -7 150 -10 61 -4 123 -8 139 -10
l29 -4 -7 62 c-3 34 -8 73 -11 87 -2 14 -11 87 -20 163 -14 115 -14 141 -3
155 21 26 351 426 363 438 5 7 24 29 40 49 17 21 68 84 115 140 47 56 99 119
117 141 17 21 44 54 60 73 80 97 537 649 552 666 9 11 104 126 211 255 107
129 202 244 211 255 10 11 66 79 125 150 59 72 125 152 147 178 l40 49 -234
234 c-129 129 -238 234 -244 234 -5 0 -19 -13 -30 -28z"/>
<path d="M12049 10866 c-2 -2 -21 -7 -42 -10 -21 -3 -71 -13 -110 -20 -40 -8
-130 -26 -202 -40 -71 -14 -141 -27 -155 -30 -14 -3 -50 -10 -80 -15 -30 -6
-66 -13 -80 -16 -14 -3 -47 -9 -75 -15 -27 -5 -62 -12 -78 -14 -15 -3 -35 -7
-45 -10 -9 -3 -34 -7 -55 -11 -22 -3 -58 -9 -80 -15 -23 -5 -78 -16 -122 -24
-44 -8 -92 -18 -107 -21 -16 -3 -40 -7 -55 -10 -16 -3 -39 -8 -53 -10 -14 -3
-36 -8 -50 -10 -25 -5 -35 -7 -125 -25 -27 -5 -61 -11 -75 -14 -14 -2 -36 -7
-50 -10 -14 -3 -36 -8 -50 -10 -14 -2 -119 -23 -235 -45 -115 -23 -226 -44
-245 -47 -19 -3 -43 -7 -52 -10 -10 -3 -30 -7 -45 -10 -16 -3 -35 -7 -43 -9
-8 -2 -31 -7 -50 -10 -29 -5 -384 -73 -470 -90 -14 -3 -41 -8 -60 -11 -19 -3
-51 -9 -70 -14 -19 -5 -123 -25 -230 -46 -107 -20 -202 -38 -210 -39 -8 -2
-18 -4 -22 -4 -5 -1 -35 -29 -69 -63 -131 -134 -580 -597 -644 -663 -37 -38
-201 -207 -364 -374 -163 -168 -322 -332 -354 -365 -33 -34 -111 -114 -175
-179 -63 -64 -113 -119 -111 -121 2 -2 301 -7 664 -10 363 -4 919 -9 1235 -12
316 -3 725 -7 908 -8 l332 -3 39 46 c41 49 442 537 501 611 19 24 58 71 86
104 52 63 313 380 374 456 31 38 539 658 632 770 20 25 72 88 114 140 43 52
119 145 169 205 100 121 110 135 97 135 -5 0 -11 -2 -13 -4z"/>
<path d="M12225 10413 c-72 -65 -147 -133 -167 -153 l-38 -35 46 -55 c25 -30
56 -66 67 -80 12 -14 58 -68 102 -120 44 -52 82 -97 85 -100 3 -3 37 -43 75
-90 38 -47 72 -87 75 -90 3 -3 57 -66 119 -140 62 -74 123 -146 135 -160 12
-14 122 -144 245 -290 123 -146 256 -303 295 -348 114 -135 106 -116 90 -202
-7 -41 -16 -86 -19 -100 -3 -14 -8 -45 -11 -69 -3 -25 -8 -49 -11 -54 -3 -5
23 -7 63 -3 38 3 105 8 149 11 44 3 110 8 148 10 37 3 97 7 135 10 37 2 105 7
152 11 47 4 95 6 108 5 12 0 22 2 22 6 0 5 -77 111 -90 123 -7 6 -164 200
-405 500 -104 129 -217 269 -250 310 -34 41 -103 127 -154 190 -51 63 -100
124 -110 135 -9 11 -61 76 -116 145 -55 69 -108 134 -117 145 -14 17 -323 399
-361 445 -53 66 -130 160 -131 160 -1 0 -60 -53 -131 -117z"/>
<path d="M4129 10253 c-237 -73 -420 -292 -454 -543 l-6 -45 296 0 295 0 0
308 0 307 -28 -2 c-16 -1 -62 -12 -103 -25z"/>
<path d="M4402 9973 l3 -308 288 0 c159 0 291 3 293 7 6 10 -15 106 -36 164
-80 222 -295 407 -508 439 l-42 6 2 -308z"/>
<path d="M11686 9589 c-133 -45 -231 -147 -271 -281 -9 -30 -11 -54 -6 -57 5
-4 87 -6 183 -6 l173 0 0 177 c0 119 -3 179 -11 182 -6 2 -36 -5 -68 -15z"/>
<path d="M11823 9426 l2 -181 173 0 c95 0 177 2 182 5 12 8 -13 89 -46 151
-56 101 -187 192 -296 204 -15 1 -16 -15 -15 -179z"/>
<path d="M3695 9552 l-30 -3 2 -316 c1 -173 4 -317 6 -319 1 -2 133 -4 292 -5
l290 -1 0 322 0 323 -265 1 c-146 0 -278 0 -295 -2z"/>
<path d="M4410 9552 c-16 -6 -13 -642 3 -642 21 -1 378 -1 480 -1 l97 1 0 320
0 320 -22 1 c-93 3 -550 3 -558 1z"/>
<path d="M11407 9183 c-4 -3 -7 -92 -7 -197 l0 -191 178 0 c97 -1 179 2 182 6
3 4 5 92 5 196 l0 188 -176 3 c-96 1 -179 -1 -182 -5z"/>
<path d="M11825 9176 c-2 -6 -3 -94 -2 -196 l2 -185 180 0 180 0 2 197 3 197
-181 -1 c-123 0 -182 -4 -184 -12z"/>
<path d="M3678 8132 c-15 -2 -35 -13 -43 -25 -9 -12 -38 -94 -66 -182 -28 -88
-70 -221 -94 -295 -24 -74 -76 -236 -115 -360 -40 -124 -94 -292 -121 -375
-47 -147 -141 -441 -261 -818 -58 -184 -66 -235 -35 -238 60 -6 408 -3 429 4
14 4 31 20 37 35 8 21 41 128 46 152 8 35 49 157 55 165 11 13 818 12 829 -1
4 -5 27 -74 50 -154 49 -165 64 -199 89 -201 9 -1 109 -2 221 -3 215 -1 231 2
231 44 0 11 -4 29 -10 42 -5 13 -41 124 -80 248 -40 124 -91 286 -115 360 -62
191 -191 596 -275 860 -178 558 -232 719 -244 729 -11 10 -460 21 -528 13z
m332 -802 c40 -135 106 -357 146 -495 41 -137 72 -255 70 -262 -4 -10 -71 -13
-306 -13 -271 0 -300 2 -300 16 0 9 41 157 91 328 50 171 113 388 140 481 58
202 67 226 79 205 4 -8 40 -125 80 -260z"/>
<path d="M11633 8132 c-47 -2 -75 -8 -83 -17 -9 -11 -12 -109 -12 -367 0 -194
-2 -357 -5 -361 -3 -4 -28 14 -57 41 -94 89 -198 123 -356 117 -117 -4 -121
-5 -203 -34 -223 -78 -394 -293 -441 -556 -3 -16 -8 -41 -12 -55 -9 -42 -13
-331 -4 -390 4 -30 11 -75 15 -98 14 -93 96 -291 139 -335 6 -6 19 -22 28 -35
28 -42 139 -130 206 -165 37 -20 69 -36 72 -36 3 0 12 -2 20 -4 87 -28 236
-36 317 -17 76 18 154 60 211 116 31 30 59 54 63 54 4 0 7 -27 7 -60 -1 -97
-4 -96 233 -95 186 1 202 2 215 20 12 16 14 196 14 1131 0 1238 6 1144 -68
1144 -20 1 -80 2 -132 3 -52 1 -127 1 -167 -1z m-274 -1016 c110 -57 171 -207
172 -420 1 -168 -18 -261 -71 -354 -54 -93 -136 -136 -244 -127 -149 13 -244
133 -272 345 -8 61 -7 200 1 240 2 14 7 40 10 58 9 55 54 156 86 195 71 86
217 115 318 63z"/>
<path d="M5973 7539 c-108 -18 -217 -76 -269 -144 -14 -19 -30 -35 -35 -35 -5
0 -9 29 -9 63 0 98 2 97 -231 97 -152 0 -199 -3 -214 -14 -19 -14 -20 -36 -20
-813 -1 -448 3 -810 8 -825 5 -16 14 -29 20 -29 7 -1 100 -2 207 -3 174 -1
197 1 212 16 17 17 18 55 18 526 1 279 3 525 6 547 14 95 90 185 179 210 148
43 291 -29 336 -170 10 -30 13 -166 14 -560 1 -286 5 -530 9 -541 9 -29 20
-30 240 -29 174 1 189 2 202 20 21 28 19 1158 -2 1254 -47 219 -205 376 -429
426 -49 11 -186 13 -242 4z"/>
<path d="M7510 7535 c-116 -22 -129 -25 -188 -47 -65 -24 -133 -60 -178 -94
-95 -70 -175 -189 -193 -286 -13 -71 -8 -73 164 -93 28 -3 59 -8 70 -10 11 -2
52 -7 90 -10 39 -4 74 -9 78 -12 17 -10 66 20 77 48 16 38 69 83 117 100 22 8
79 14 133 14 87 0 100 -3 148 -29 74 -41 104 -94 110 -193 3 -52 1 -78 -7 -83
-7 -4 -112 -8 -234 -9 -122 -1 -233 -3 -247 -5 -14 -3 -41 -7 -60 -10 -19 -3
-45 -8 -57 -11 -13 -3 -31 -7 -42 -9 -80 -18 -213 -97 -267 -160 -43 -48 -99
-164 -109 -221 -8 -53 -8 -187 0 -228 30 -146 107 -247 240 -312 223 -110 570
-78 726 67 23 21 45 38 50 38 5 0 9 -27 9 -59 0 -86 0 -86 226 -85 104 1 197
2 206 3 10 0 21 13 25 29 13 51 7 1151 -7 1217 -49 233 -264 404 -565 450 -82
13 -245 12 -315 0z m423 -984 c11 -2 8 -151 -4 -196 -22 -81 -110 -158 -208
-185 -196 -52 -351 27 -351 178 0 90 79 171 188 192 32 6 61 12 65 13 8 2 296
0 310 -2z"/>
<path d="M9528 7545 c-2 -2 -21 -6 -43 -10 -22 -4 -45 -7 -50 -9 -38 -7 -138
-69 -184 -114 -29 -29 -55 -51 -57 -50 -1 2 -4 31 -5 66 -3 95 1 93 -240 90
-196 -3 -204 -4 -214 -24 -17 -34 -14 -1629 3 -1646 18 -18 416 -18 434 0 10
10 13 112 15 465 3 658 1 619 35 688 36 71 86 115 155 135 118 35 231 -3 295
-97 50 -75 51 -88 53 -644 2 -286 3 -525 4 -531 2 -24 54 -30 240 -29 179 1
194 2 207 20 12 16 14 113 13 590 0 313 -5 597 -10 630 -37 228 -185 395 -399
450 -56 15 -242 29 -252 20z"/>
<path d="M4028 4639 c-15 -9 -17 -59 -17 -652 0 -353 3 -652 6 -664 5 -22 10
-23 103 -23 66 0 101 4 107 13 6 7 10 122 9 285 -1 235 1 275 14 281 18 8 461
7 482 -1 12 -5 14 -50 13 -274 -1 -148 3 -277 7 -286 7 -15 23 -18 107 -18 81
0 100 3 105 16 3 9 6 308 6 664 0 508 -3 651 -12 657 -18 11 -181 13 -198 3
-12 -7 -14 -60 -15 -287 l0 -278 -240 -1 c-132 0 -247 3 -255 7 -13 6 -15 46
-14 279 0 237 -2 272 -15 279 -23 11 -173 12 -193 0z"/>
<path d="M5732 4289 c-118 -20 -234 -104 -287 -209 -15 -29 -28 -60 -31 -69
-2 -9 -9 -36 -15 -61 -17 -69 -14 -254 6 -330 58 -223 219 -342 451 -334 174
7 323 116 378 277 26 76 29 97 32 218 5 172 -31 291 -119 386 -97 105 -247
149 -415 122z m179 -203 c41 -18 71 -43 92 -76 25 -40 43 -147 41 -240 -5
-201 -94 -306 -245 -288 -131 17 -189 116 -184 320 2 116 8 144 35 199 47 91
163 129 261 85z"/>
<path d="M8160 4284 c-86 -18 -125 -36 -175 -77 -122 -102 -131 -288 -19 -387
49 -43 112 -72 244 -114 222 -71 240 -82 240 -141 0 -140 -339 -141 -354 -1
-1 14 -5 28 -8 31 -4 5 -120 9 -180 6 -26 -1 -28 -4 -28 -47 0 -108 97 -209
238 -246 62 -16 220 -21 286 -8 114 22 206 83 248 164 24 46 29 150 10 206
-16 47 -83 114 -140 140 -26 12 -54 25 -62 29 -8 4 -51 18 -95 31 -208 59
-265 90 -265 143 0 31 25 64 62 83 66 34 221 20 261 -23 8 -10 19 -34 24 -53
l9 -35 100 0 99 0 3 34 c10 98 -92 214 -223 253 -78 23 -197 28 -275 12z"/>
<path d="M9327 4279 c-59 -18 -141 -64 -167 -96 -93 -109 -120 -189 -123 -358
-5 -326 141 -520 405 -538 140 -9 269 34 355 121 49 49 67 81 54 98 -7 10 -89
77 -108 87 -7 5 -27 -9 -48 -32 -145 -156 -422 -87 -428 107 l-2 47 305 0
c168 0 310 4 317 8 20 13 1 210 -28 292 -46 127 -125 217 -227 255 -77 30
-223 34 -305 9z m228 -195 c61 -29 98 -83 110 -163 l6 -41 -206 0 c-163 0
-205 3 -205 13 0 24 31 120 47 143 8 13 36 34 63 47 56 28 127 29 185 1z"/>
<path d="M10519 4278 c-39 -10 -87 -27 -107 -39 -155 -93 -190 -288 -74 -406
54 -54 120 -86 297 -142 153 -48 190 -68 198 -107 13 -71 -64 -126 -175 -125
-95 0 -171 46 -181 109 -5 32 -9 33 -83 34 -142 0 -134 3 -134 -41 0 -47 29
-118 61 -152 73 -77 168 -111 319 -115 207 -6 327 46 393 171 16 31 21 58 21
115 0 82 -14 119 -62 168 -56 57 -99 76 -354 157 -64 20 -124 45 -134 56 -21
23 -23 81 -4 104 28 34 74 49 155 49 111 0 167 -32 178 -104 4 -24 7 -25 96
-28 106 -3 121 4 115 51 -14 94 -69 164 -167 211 -109 53 -237 65 -358 34z"/>
<path d="M6687 4282 c-12 -3 -17 -14 -18 -40 0 -20 0 -186 0 -367 -1 -316 0
-333 21 -389 48 -128 178 -204 340 -198 75 3 140 26 188 68 l41 35 3 -43 3
-43 99 -3 c55 -1 103 1 109 7 13 13 12 950 -2 964 -13 13 -188 14 -201 1 -6
-6 -10 -143 -10 -329 -1 -288 -3 -324 -19 -361 -19 -42 -68 -86 -109 -99 -41
-12 -109 -7 -143 10 -41 22 -52 32 -75 75 -17 32 -19 64 -22 365 -2 191 -7
334 -13 340 -8 8 -155 14 -192 7z"/>
</g>
</svg>
